<mxfile host="app.diagrams.net" agent="Mozilla/5.0 (Macintosh; Intel Mac OS X 10_15_7) AppleWebKit/537.36 (KHTML, like Gecko) Chrome/135.0.0.0 Safari/537.36" version="26.2.13">
  <diagram name="第 1 页" id="bDbu4vG8pCKBx_zWIHkC">
    <mxGraphModel dx="948" dy="610" grid="0" gridSize="10" guides="1" tooltips="1" connect="1" arrows="1" fold="1" page="1" pageScale="1" pageWidth="827" pageHeight="1169" math="0" shadow="0">
      <root>
        <mxCell id="0" />
        <mxCell id="1" parent="0" />
        <mxCell id="A78PYnJKNRoN8EFOS2h6-2" value="客户端" style="rounded=0;whiteSpace=wrap;html=1;" vertex="1" parent="1">
          <mxGeometry x="329" y="230" width="110" height="30" as="geometry" />
        </mxCell>
        <mxCell id="A78PYnJKNRoN8EFOS2h6-15" style="rounded=0;orthogonalLoop=1;jettySize=auto;html=1;exitX=0.5;exitY=0;exitDx=0;exitDy=0;entryX=0.5;entryY=1;entryDx=0;entryDy=0;" edge="1" parent="1" source="A78PYnJKNRoN8EFOS2h6-3" target="A78PYnJKNRoN8EFOS2h6-2">
          <mxGeometry relative="1" as="geometry" />
        </mxCell>
        <mxCell id="A78PYnJKNRoN8EFOS2h6-3" value="用户管理" style="rounded=1;whiteSpace=wrap;html=1;" vertex="1" parent="1">
          <mxGeometry x="100" y="290" width="110" height="30" as="geometry" />
        </mxCell>
        <mxCell id="A78PYnJKNRoN8EFOS2h6-16" style="rounded=0;orthogonalLoop=1;jettySize=auto;html=1;exitX=0.5;exitY=0;exitDx=0;exitDy=0;entryX=0.5;entryY=1;entryDx=0;entryDy=0;" edge="1" parent="1" source="A78PYnJKNRoN8EFOS2h6-4" target="A78PYnJKNRoN8EFOS2h6-2">
          <mxGeometry relative="1" as="geometry" />
        </mxCell>
        <mxCell id="A78PYnJKNRoN8EFOS2h6-4" value="数据管理" style="rounded=1;whiteSpace=wrap;html=1;" vertex="1" parent="1">
          <mxGeometry x="259" y="290" width="110" height="30" as="geometry" />
        </mxCell>
        <mxCell id="A78PYnJKNRoN8EFOS2h6-17" style="rounded=0;orthogonalLoop=1;jettySize=auto;html=1;exitX=0.5;exitY=0;exitDx=0;exitDy=0;entryX=0.5;entryY=1;entryDx=0;entryDy=0;" edge="1" parent="1" source="A78PYnJKNRoN8EFOS2h6-5" target="A78PYnJKNRoN8EFOS2h6-2">
          <mxGeometry relative="1" as="geometry" />
        </mxCell>
        <mxCell id="A78PYnJKNRoN8EFOS2h6-5" value="数据检索" style="rounded=1;whiteSpace=wrap;html=1;" vertex="1" parent="1">
          <mxGeometry x="410" y="290" width="110" height="30" as="geometry" />
        </mxCell>
        <mxCell id="A78PYnJKNRoN8EFOS2h6-6" value="日志记录" style="rounded=1;whiteSpace=wrap;html=1;" vertex="1" parent="1">
          <mxGeometry x="560" y="290" width="110" height="30" as="geometry" />
        </mxCell>
        <mxCell id="A78PYnJKNRoN8EFOS2h6-19" value="" style="rounded=0;orthogonalLoop=1;jettySize=auto;html=1;" edge="1" parent="1" source="A78PYnJKNRoN8EFOS2h6-8" target="A78PYnJKNRoN8EFOS2h6-3">
          <mxGeometry relative="1" as="geometry" />
        </mxCell>
        <mxCell id="A78PYnJKNRoN8EFOS2h6-8" value="用户鉴权" style="rounded=0;whiteSpace=wrap;html=1;" vertex="1" parent="1">
          <mxGeometry x="100" y="360" width="50" height="30" as="geometry" />
        </mxCell>
        <mxCell id="A78PYnJKNRoN8EFOS2h6-20" value="" style="rounded=0;orthogonalLoop=1;jettySize=auto;html=1;" edge="1" parent="1" source="A78PYnJKNRoN8EFOS2h6-9" target="A78PYnJKNRoN8EFOS2h6-3">
          <mxGeometry relative="1" as="geometry" />
        </mxCell>
        <mxCell id="A78PYnJKNRoN8EFOS2h6-9" value="用户登录" style="rounded=0;whiteSpace=wrap;html=1;" vertex="1" parent="1">
          <mxGeometry x="160" y="360" width="50" height="30" as="geometry" />
        </mxCell>
        <mxCell id="A78PYnJKNRoN8EFOS2h6-21" value="" style="rounded=0;orthogonalLoop=1;jettySize=auto;html=1;" edge="1" parent="1" source="A78PYnJKNRoN8EFOS2h6-10" target="A78PYnJKNRoN8EFOS2h6-4">
          <mxGeometry relative="1" as="geometry" />
        </mxCell>
        <mxCell id="A78PYnJKNRoN8EFOS2h6-10" value="数据上传" style="rounded=0;whiteSpace=wrap;html=1;" vertex="1" parent="1">
          <mxGeometry x="259" y="360" width="50" height="30" as="geometry" />
        </mxCell>
        <mxCell id="A78PYnJKNRoN8EFOS2h6-22" value="" style="rounded=0;orthogonalLoop=1;jettySize=auto;html=1;" edge="1" parent="1" source="A78PYnJKNRoN8EFOS2h6-11" target="A78PYnJKNRoN8EFOS2h6-4">
          <mxGeometry relative="1" as="geometry" />
        </mxCell>
        <mxCell id="A78PYnJKNRoN8EFOS2h6-11" value="数据下载" style="rounded=0;whiteSpace=wrap;html=1;" vertex="1" parent="1">
          <mxGeometry x="319" y="360" width="50" height="30" as="geometry" />
        </mxCell>
        <mxCell id="A78PYnJKNRoN8EFOS2h6-23" value="" style="rounded=0;orthogonalLoop=1;jettySize=auto;html=1;" edge="1" parent="1" source="A78PYnJKNRoN8EFOS2h6-12" target="A78PYnJKNRoN8EFOS2h6-5">
          <mxGeometry relative="1" as="geometry" />
        </mxCell>
        <mxCell id="A78PYnJKNRoN8EFOS2h6-12" value="检索页面" style="rounded=0;whiteSpace=wrap;html=1;" vertex="1" parent="1">
          <mxGeometry x="400" y="360" width="50" height="30" as="geometry" />
        </mxCell>
        <mxCell id="A78PYnJKNRoN8EFOS2h6-24" value="" style="rounded=0;orthogonalLoop=1;jettySize=auto;html=1;" edge="1" parent="1" source="A78PYnJKNRoN8EFOS2h6-13" target="A78PYnJKNRoN8EFOS2h6-5">
          <mxGeometry relative="1" as="geometry" />
        </mxCell>
        <mxCell id="A78PYnJKNRoN8EFOS2h6-13" value="检索结果页面" style="rounded=0;whiteSpace=wrap;html=1;" vertex="1" parent="1">
          <mxGeometry x="460" y="360" width="80" height="30" as="geometry" />
        </mxCell>
        <mxCell id="A78PYnJKNRoN8EFOS2h6-25" value="" style="edgeStyle=orthogonalEdgeStyle;rounded=0;orthogonalLoop=1;jettySize=auto;html=1;" edge="1" parent="1" source="A78PYnJKNRoN8EFOS2h6-14" target="A78PYnJKNRoN8EFOS2h6-6">
          <mxGeometry relative="1" as="geometry" />
        </mxCell>
        <mxCell id="A78PYnJKNRoN8EFOS2h6-14" value="日志记录" style="rounded=0;whiteSpace=wrap;html=1;" vertex="1" parent="1">
          <mxGeometry x="575" y="360" width="80" height="30" as="geometry" />
        </mxCell>
        <mxCell id="A78PYnJKNRoN8EFOS2h6-18" style="rounded=0;orthogonalLoop=1;jettySize=auto;html=1;exitX=0.5;exitY=0;exitDx=0;exitDy=0;" edge="1" parent="1" source="A78PYnJKNRoN8EFOS2h6-6">
          <mxGeometry relative="1" as="geometry">
            <mxPoint x="390" y="260" as="targetPoint" />
          </mxGeometry>
        </mxCell>
      </root>
    </mxGraphModel>
  </diagram>
</mxfile>
